# xmcd CD database file
#
# Track frame offsets:
#	150
#	16978
#	32380
#	50299
#	72279
#	88892
#	101289
#	116981
#	132106
#	146028
#	161568
#	176546
#	194785
#
# Disc length: 2961 seconds
#
# Revision: 4
# Processed by: cddbd v1.5.2PL0 Copyright (c) Steve Scherf et al.
# Submitted via: CDex 1.79
#
DISCID=b30b8f0d
DTITLE=Shooter Jennings - The Wolf
DYEAR=2007
DGENRE=Country
TTITLE0=This Ol Wheel (featuring Doug Kershaw)
TTITLE1=Tangled Up Roses
TTITLE2=Walk Of Life
TTITLE3=Old Friend
TTITLE4=Slow Train (featuring The Oak Ridge Boys)
TTITLE5=Time Management 101
TTITLE6=Concrete Cowboy
TTITLE7=Higher
TTITLE8=Blood From A Stone
TTITLE9=Last Time I Let You Down
TTITLE10=She Lives In Color
TTITLE11=The Wolf
TTITLE12=A Matter Of Time
EXTD=YEAR: 2007
EXTT0=
EXTT1=
EXTT2=
EXTT3=
EXTT4=
EXTT5=
EXTT6=
EXTT7=
EXTT8=
EXTT9=
EXTT10=
EXTT11=
EXTT12=
PLAYORDER=
